HIERARCHY
ROOT hip
{
  OFFSET 0.00112043 5.09927 -9.65472
  CHANNELS 6 Xposition Yposition Zposition Zrotation Xrotation Yrotation
  JOINT abdomen
  {
    OFFSET 0 -1.186 -1.5018
    CHANNELS 3 Zrotation Xrotation Yrotation
    JOINT abdomen2
    {
      OFFSET 0 9.964 0.2134
      CHANNELS 3 Zrotation Xrotation Yrotation
      JOINT chest
      {
        OFFSET 0 13.134 -3.2573
        CHANNELS 3 Zrotation Xrotation Yrotation
        JOINT neck
        {
          OFFSET 0 20.686 -1.6905
          CHANNELS 3 Zrotation Xrotation Yrotation
          JOINT head
          {
            OFFSET 0 7.238 -0.1237
            CHANNELS 3 Zrotation Xrotation Yrotation
            End Site
            {
              OFFSET 0 0 0
            }
          }
        }
        JOINT lCollar
        {
          OFFSET 1.7069 20.075 5.0056
          CHANNELS 3 Zrotation Xrotation Yrotation
          JOINT lShldr
          {
            OFFSET 13.6458 -0.047 -4.849
            CHANNELS 3 Zrotation Xrotation Yrotation
            JOINT lForeArm
            {
              OFFSET 28.3255 -0.9759 2.2888
              CHANNELS 3 Zrotation Xrotation Yrotation
              JOINT lHand
              {
                OFFSET 22.1583 -0.53 10.8316
                CHANNELS 3 Zrotation Xrotation Yrotation
                JOINT lThumb1
                {
                  OFFSET 0.786 0.112 2.5817
                  CHANNELS 3 Zrotation Xrotation Yrotation
                  JOINT lThumb2
                  {
                    OFFSET 0.3601 -0.878 4.2331
                    CHANNELS 3 Zrotation Xrotation Yrotation
                    JOINT lThumb2_End
                    {
                      OFFSET 1.8127 -1.216 2.2227
                      CHANNELS 3 Zrotation Xrotation Yrotation
                      End Site
                      {
                        OFFSET 0.0181 -0.0122 0.0222
                      }
                    }
                  }
                }
                JOINT lCarpal1
                {
                  OFFSET 0.9571 1.114 1.7695
                  CHANNELS 3 Zrotation Xrotation Yrotation
                  JOINT lIndex1
                  {
                    OFFSET 4.1246 0.487 4.1451
                    CHANNELS 3 Zrotation Xrotation Yrotation
                    JOINT lIndex2
                    {
                      OFFSET 3.4052 -1.454 2.7682
                      CHANNELS 3 Zrotation Xrotation Yrotation
                      JOINT lIndex2_End
                      {
                        OFFSET 1.4531 -1.795 1.2713
                        CHANNELS 3 Zrotation Xrotation Yrotation
                        End Site
                        {
                          OFFSET 0.0145 -0.0179 0.0127
                        }
                      }
                    }
                  }
                  JOINT lMid1
                  {
                    OFFSET 5.6954 0.21 2.1184
                    CHANNELS 3 Zrotation Xrotation Yrotation
                    JOINT lMid2
                    {
                      OFFSET 3.9766 -1.54 2.3863
                      CHANNELS 3 Zrotation Xrotation Yrotation
                      JOINT lMid2_End
                      {
                        OFFSET 1.4042 -1.926 1.125
                        CHANNELS 3 Zrotation Xrotation Yrotation
                        End Site
                        {
                          OFFSET 0.014 -0.0193 0.0113
                        }
                      }
                    }
                  }
                }
                JOINT lCarpal2
                {
                  OFFSET 2.0956 0.66 -0.3894
                  CHANNELS 3 Zrotation Xrotation Yrotation
                  JOINT lRing1
                  {
                    OFFSET 5.0395 -0.09 2.4971
                    CHANNELS 3 Zrotation Xrotation Yrotation
                    JOINT lRing2
                    {
                      OFFSET 3.7921 -1.552 1.4806
                      CHANNELS 3 Zrotation Xrotation Yrotation
                      JOINT lRing2_End
                      {
                        OFFSET 1.4655 -1.808 0.9609
                        CHANNELS 3 Zrotation Xrotation Yrotation
                        End Site
                        {
                          OFFSET 0.0147 -0.0181 0.0096
                        }
                      }
                    }
                  }
                  JOINT lPinky1
                  {
                    OFFSET 4.9141 -1.269 0.3591
                    CHANNELS 3 Zrotation Xrotation Yrotation
                    JOINT lPinky2
                    {
                      OFFSET 3.1477 -1.685 0.8462
                      CHANNELS 3 Zrotation Xrotation Yrotation
                      JOINT lPinky2_End
                      {
                        OFFSET 0.8055 -1.585 0.7955
                        CHANNELS 3 Zrotation Xrotation Yrotation
                        End Site
                        {
                          OFFSET 0.0081 -0.0158 0.008
                        }
                      }
                    }
                  }
                }
              }
            }
          }
        }
        JOINT rCollar
        {
          OFFSET -1.7069 20.075 5.0056
          CHANNELS 3 Zrotation Xrotation Yrotation
          JOINT rShldr
          {
            OFFSET -13.6458 -0.047 -4.849
            CHANNELS 3 Zrotation Xrotation Yrotation
            JOINT rForeArm
            {
              OFFSET -28.3255 -0.9759 2.2888
              CHANNELS 3 Zrotation Xrotation Yrotation
              JOINT rHand
              {
                OFFSET -22.1583 -0.53 10.8316
                CHANNELS 3 Zrotation Xrotation Yrotation
                JOINT rThumb1
                {
                  OFFSET -0.786 0.112 2.5817
                  CHANNELS 3 Zrotation Xrotation Yrotation
                  JOINT rThumb2
                  {
                    OFFSET -0.3601 -0.878 4.2331
                    CHANNELS 3 Zrotation Xrotation Yrotation
                    JOINT rThumb2_End
                    {
                      OFFSET -1.8127 -1.216 2.2227
                      CHANNELS 3 Zrotation Xrotation Yrotation
                      End Site
                      {
                        OFFSET -0.0181 -0.0122 0.0222
                      }
                    }
                  }
                }
                JOINT rCarpal1
                {
                  OFFSET -0.9571 1.114 1.7695
                  CHANNELS 3 Zrotation Xrotation Yrotation
                  JOINT rIndex1
                  {
                    OFFSET -4.1246 0.487 4.1451
                    CHANNELS 3 Zrotation Xrotation Yrotation
                    JOINT rIndex2
                    {
                      OFFSET -3.4052 -1.454 2.7682
                      CHANNELS 3 Zrotation Xrotation Yrotation
                      JOINT rIndex2_End
                      {
                        OFFSET -1.4531 -1.795 1.2713
                        CHANNELS 3 Zrotation Xrotation Yrotation
                        End Site
                        {
                          OFFSET -0.0145 -0.018 0.0127
                        }
                      }
                    }
                  }
                  JOINT rMid1
                  {
                    OFFSET -5.6954 0.21 2.1184
                    CHANNELS 3 Zrotation Xrotation Yrotation
                    JOINT rMid2
                    {
                      OFFSET -3.9766 -1.54 2.3863
                      CHANNELS 3 Zrotation Xrotation Yrotation
                      JOINT rMid2_End
                      {
                        OFFSET -1.4042 -1.926 1.125
                        CHANNELS 3 Zrotation Xrotation Yrotation
                        End Site
                        {
                          OFFSET -0.014 -0.0193 0.0113
                        }
                      }
                    }
                  }
                }
                JOINT rCarpal2
                {
                  OFFSET -2.0956 0.66 -0.3894
                  CHANNELS 3 Zrotation Xrotation Yrotation
                  JOINT rRing1
                  {
                    OFFSET -5.0395 -0.09 2.4971
                    CHANNELS 3 Zrotation Xrotation Yrotation
                    JOINT rRing2
                    {
                      OFFSET -3.7921 -1.552 1.4806
                      CHANNELS 3 Zrotation Xrotation Yrotation
                      JOINT rRing2_End
                      {
                        OFFSET -1.4655 -1.808 0.9609
                        CHANNELS 3 Zrotation Xrotation Yrotation
                        End Site
                        {
                          OFFSET -0.0147 -0.0181 0.0096
                        }
                      }
                    }
                  }
                  JOINT rPinky1
                  {
                    OFFSET -4.9141 -1.269 0.3592
                    CHANNELS 3 Zrotation Xrotation Yrotation
                    JOINT rPinky2
                    {
                      OFFSET -3.1477 -1.685 0.8462
                      CHANNELS 3 Zrotation Xrotation Yrotation
                      JOINT rPinky2_End
                      {
                        OFFSET -0.8055 -1.585 0.7955
                        CHANNELS 3 Zrotation Xrotation Yrotation
                        End Site
                        {
                          OFFSET -0.0081 -0.0158 0.008
                        }
                      }
                    }
                  }
                }
              }
            }
          }
        }
      }
    }
  }
  JOINT lThigh
  {
    OFFSET 8.367 -8.2066 0.5982
    CHANNELS 3 Zrotation Xrotation Yrotation
    JOINT lShin
    {
      OFFSET 2.1923 -43.463 -0.4932
      CHANNELS 3 Zrotation Xrotation Yrotation
      JOINT lFoot
      {
        OFFSET 0.7333 -45.8593 -2.6451
        CHANNELS 3 Zrotation Xrotation Yrotation
        End Site
        {
          OFFSET 2.6618 -4.2699 12.3931
        }
      }
    }
  }
  JOINT rThigh
  {
    OFFSET -8.367 -8.2066 0.5982
    CHANNELS 3 Zrotation Xrotation Yrotation
    JOINT rShin
    {
      OFFSET -2.1923 -43.463 -0.4931
      CHANNELS 3 Zrotation Xrotation Yrotation
      JOINT rFoot
      {
        OFFSET -0.7333 -45.8593 -2.6451
        CHANNELS 3 Zrotation Xrotation Yrotation
        End Site
        {
          OFFSET -2.6618 -4.2699 12.3931
        }
      }
    }
  }
}
MOTION
Frames:	6
Frame Time:	0.0333333
2.10934 -2.50517 -8.21191 -90.0327 -88.9027 -140.032 -9.26814 3.95928 -3.41318 -18.3575 8.41185 -6.16529 -18.3575 8.41182 -6.16528 -15.2988 -37.9969 -25.5584 15.6288 -26.1366 -18.9768 -16.0211 13.4241 -24.3774 21.2181 -33.6914 41.535 8.62775 0.778742 -25.1256 -48.1484 -41.7318 -38.3037 3.18055e-015 -7.95139e-015 9.54166e-015 1.76556e-030 -7.95139e-015 1.27222e-014 -0 0 1.27222e-014 1.59028e-015 -7.95139e-015 3.18055e-015 3.18055e-015 0 9.54166e-015 3.18055e-015 -7.95139e-015 1.90833e-014 3.18055e-015 1.59028e-015 6.36111e-015 3.18055e-015 0 9.54166e-015 3.18055e-015 -7.95139e-015 1.90833e-014 3.18055e-015 1.59028e-015 6.36111e-015 1.59028e-015 -7.95139e-015 3.18055e-015 3.18055e-015 0 9.54166e-015 3.18055e-015 -7.95139e-015 1.90833e-014 3.18055e-015 1.59028e-015 6.36111e-015 3.18055e-015 0 9.54166e-015 3.18055e-015 -7.95139e-015 1.90833e-014 3.18055e-015 1.59028e-015 6.36111e-015 1.92171 3.62322 -33.2911 -5.19556 30.682 26.3302 -42.1829 -29.0546 27.2297 0.52981 10.8632 4.12073 7.95139e-016 0 1.27222e-014 -2.02355e-007 -6.6805e-008 1.16611e-008 1.19271e-015 0 -9.54166e-015 7.95139e-016 0 1.27222e-014 1.19271e-015 0 1.59028e-014 -2.02355e-007 -6.6805e-008 1.16611e-008 -7.95139e-016 0 -6.36111e-015 1.19271e-015 0 1.59028e-014 -2.02355e-007 -6.6805e-008 1.16611e-008 -7.95139e-016 0 -6.36111e-015 7.95139e-016 0 1.27222e-014 1.19271e-015 0 1.59028e-014 -2.02355e-007 -6.6805e-008 1.16611e-008 -7.95139e-016 0 -6.36111e-015 1.19271e-015 0 1.59028e-014 -2.02355e-007 -6.6805e-008 1.16611e-008 -7.95139e-016 0 -6.36111e-015 79.0665 -49.0275 110.994 -6.91487 -1.95513 1.0602 12.9697 11.7185 -10.6662 -71.6586 -64.7753 -63.7761 -9.32222 69.8467 5.00963 10.8012 18.8973 -6.11675 
2.16786 -2.51074 -8.22742 -90.0376 -88.1719 -140.037 -9.22475 4.1726 -3.37651 -18.2681 8.82773 -6.06308 -18.2681 8.82774 -6.06311 -15.2988 -37.9963 -25.5585 15.6288 -26.1366 -18.9768 -16.0211 13.4241 -24.3774 20.3826 -32.6928 41.0738 8.63563 0.648197 -25.8443 -48.1485 -41.7318 -38.3037 1.59028e-015 3.18055e-015 -3.18055e-015 -4.77083e-015 0 3.18055e-015 -6.36111e-015 0 -3.18055e-015 1.59028e-015 3.18055e-015 -3.18055e-015 -6.36111e-015 0 3.18055e-015 -6.36111e-015 0 -3.18055e-015 -3.18055e-015 3.18055e-015 -0 -6.36111e-015 0 3.18055e-015 -6.36111e-015 0 -3.18055e-015 -3.18055e-015 3.18055e-015 -0 1.59028e-015 3.18055e-015 -3.18055e-015 -6.36111e-015 0 3.18055e-015 -6.36111e-015 0 -3.18055e-015 -3.18055e-015 3.18055e-015 -0 -6.36111e-015 0 3.18055e-015 -6.36111e-015 0 -3.18055e-015 -3.18055e-015 3.18055e-015 -0 2.03385 3.66428 -33.1602 -5.19557 30.682 26.3302 -42.0473 -28.8915 27.0206 0.200075 10.3212 4.10853 7.95139e-016 0 1.27222e-014 7.95139e-016 -3.18055e-015 6.36111e-015 1.76556e-031 -3.18055e-015 3.18055e-015 3.97569e-016 7.95139e-016 1.27222e-014 1.76556e-031 -7.95139e-016 1.27222e-014 4.41391e-032 -7.95139e-016 3.18055e-015 7.95139e-016 -2.38542e-015 3.18055e-015 1.76556e-031 -7.95139e-016 1.27222e-014 4.41391e-032 -7.95139e-016 3.18055e-015 7.95139e-016 -2.38542e-015 3.18055e-015 3.97569e-016 7.95139e-016 1.27222e-014 1.76556e-031 -7.95139e-016 1.27222e-014 4.41391e-032 -7.95139e-016 3.18055e-015 7.95139e-016 -2.38542e-015 3.18055e-015 1.76556e-031 -7.95139e-016 1.27222e-014 4.41391e-032 -7.95139e-016 3.18055e-015 7.95139e-016 -2.38542e-015 3.18055e-015 79.0785 -48.9056 111.108 -6.91534 -1.95335 1.05201 13.044 11.5953 -11.3905 -69.6804 -64.6422 -62.0589 -9.16554 69.7444 4.87255 10.907 18.8509 -6.27701 
2.2265 -2.51627 -8.24245 -90.0399 -87.4404 -140.039 -9.18115 4.38587 -3.33891 -18.1789 9.24347 -5.95938 -18.1789 9.24346 -5.95937 -15.2988 -37.9964 -25.5585 15.6288 -26.1366 -18.9768 -16.021 13.4241 -24.3774 19.5635 -31.6859 40.6337 8.64187 0.517424 -26.5638 -48.1485 -41.7318 -38.3038 1.13818e-006 1.35645e-006 1.51767e-006 -3.85397e-006 -5.43717e-007 -1.57451e-006 3.85397e-006 5.43717e-007 1.57451e-006 2.64834e-031 -4.77083e-015 3.18055e-015 1.13818e-006 1.35645e-006 1.51767e-006 -3.85397e-006 -5.43717e-007 -1.57451e-006 3.85397e-006 5.43717e-007 1.57451e-006 1.13818e-006 1.35645e-006 1.51767e-006 -3.85397e-006 -5.43717e-007 -1.57451e-006 3.85397e-006 5.43717e-007 1.57451e-006 2.64834e-031 -4.77083e-015 3.18055e-015 1.13818e-006 1.35645e-006 1.51767e-006 -3.85397e-006 -5.43717e-007 -1.57451e-006 3.85397e-006 5.43717e-007 1.57451e-006 1.13818e-006 1.35645e-006 1.51767e-006 -3.85397e-006 -5.43717e-007 -1.57451e-006 3.85397e-006 5.43717e-007 1.57451e-006 2.14591 3.70558 -33.0293 -5.19557 30.682 26.3302 -41.9113 -28.7288 26.8113 -0.129482 9.77881 4.0932 -7.95139e-016 0 -3.18055e-015 -2.0239e-007 -6.66778e-008 1.1801e-008 3.97569e-016 -1.59028e-015 6.36111e-015 -3.97569e-016 7.95139e-016 -3.18055e-015 -3.97569e-016 2.38542e-015 1.27222e-014 -2.0239e-007 -6.66778e-008 1.1801e-008 -7.95139e-016 -7.95139e-016 -3.18055e-015 -3.97569e-016 2.38542e-015 1.27222e-014 -2.0239e-007 -6.66778e-008 1.1801e-008 -7.95139e-016 -7.95139e-016 -3.18055e-015 -3.97569e-016 7.95139e-016 -3.18055e-015 -3.97569e-016 2.38542e-015 1.27222e-014 -2.0239e-007 -6.66778e-008 1.1801e-008 -7.95139e-016 -7.95139e-016 -3.18055e-015 -3.97569e-016 2.38542e-015 1.27222e-014 -2.0239e-007 -6.66778e-008 1.1801e-008 -7.95139e-016 -7.95139e-016 -3.18055e-015 79.0873 -48.7839 111.219 -6.91585 -1.95593 1.04331 13.1168 11.4734 -12.1153 -67.7194 -64.4841 -60.3599 -9.01076 69.6429 4.73732 11.0124 18.8034 -6.43704 
2.28525 -2.52173 -8.25701 -90.0409 -86.7081 -140.04 -9.13737 4.59902 -3.30039 -18.09 9.65898 -5.85408 -18.09 9.659 -5.85409 -15.2989 -37.9963 -25.5585 15.6288 -26.1366 -18.9768 -16.021 13.4241 -24.3775 18.7599 -30.671 40.2138 8.64648 0.38644 -27.2838 -48.1485 -41.7318 -38.3037 1.13188e-006 1.42139e-006 2.7326e-006 -1.13188e-006 -1.42139e-006 -2.7326e-006 1.13188e-006 1.42139e-006 2.7326e-006 1.59028e-015 3.18055e-015 -3.18055e-015 1.13188e-006 1.42139e-006 2.7326e-006 -1.13188e-006 -1.42139e-006 -2.7326e-006 1.13188e-006 1.42139e-006 2.7326e-006 1.13188e-006 1.42139e-006 2.7326e-006 -1.13188e-006 -1.42139e-006 -2.7326e-006 1.13188e-006 1.42139e-006 2.7326e-006 1.59028e-015 3.18055e-015 -3.18055e-015 1.13188e-006 1.42139e-006 2.7326e-006 -1.13188e-006 -1.42139e-006 -2.7326e-006 1.13188e-006 1.42139e-006 2.7326e-006 1.13188e-006 1.42139e-006 2.7326e-006 -1.13188e-006 -1.42139e-006 -2.7326e-006 1.13188e-006 1.42139e-006 2.7326e-006 2.25789 3.74713 -32.8985 -5.19556 30.682 26.3302 -41.7748 -28.5665 26.6019 -0.458901 9.23615 4.07471 -0 0 3.18055e-015 -3.97569e-016 0 3.18055e-015 -7.95139e-016 7.95139e-016 -0 3.97569e-016 0 -3.18055e-015 -3.53113e-031 3.18055e-015 6.36111e-015 -3.97569e-016 -1.59028e-015 3.18055e-015 -1.59028e-015 -7.95139e-016 3.18055e-015 -3.53113e-031 3.18055e-015 6.36111e-015 -3.97569e-016 -1.59028e-015 3.18055e-015 -1.59028e-015 -7.95139e-016 3.18055e-015 3.97569e-016 0 -3.18055e-015 -3.53113e-031 3.18055e-015 6.36111e-015 -3.97569e-016 -1.59028e-015 3.18055e-015 -1.59028e-015 -7.95139e-016 3.18055e-015 -3.53113e-031 3.18055e-015 6.36111e-015 -3.97569e-016 -1.59028e-015 3.18055e-015 -1.59028e-015 -7.95139e-016 3.18055e-015 79.0987 -48.6607 111.333 -6.91632 -1.9547 1.03501 13.1878 11.3486 -12.8401 -65.7792 -64.3013 -58.6826 -8.85753 69.5418 4.60364 11.1176 18.755 -6.59686 
2.34409 -2.52713 -8.27108 -90.0414 -85.9753 -140.041 -9.09341 4.81206 -3.26092 -18.0014 10.0743 -5.74725 -18.0014 10.0743 -5.74724 -15.2991 -37.9973 -25.5587 15.6288 -26.1366 -18.9768 -16.021 13.4241 -24.3774 17.9712 -29.6488 39.8138 8.64942 0.25535 -28.0045 -48.1485 -41.7318 -38.3037 7.94503e-031 -4.77083e-015 9.54166e-015 -3.0573e-006 2.43698e-006 -4.06689e-006 3.03875e-007 -1.88358e-007 2.12842e-006 1.59028e-015 -4.77083e-015 -0 -8.82781e-031 3.18055e-015 1.59028e-014 -3.0573e-006 2.43698e-006 -4.06689e-006 3.03875e-007 -1.88358e-007 2.12842e-006 -8.82781e-031 3.18055e-015 1.59028e-014 -3.0573e-006 2.43698e-006 -4.06689e-006 3.03875e-007 -1.88358e-007 2.12842e-006 1.59028e-015 -4.77083e-015 -0 -8.82781e-031 3.18055e-015 1.59028e-014 -3.0573e-006 2.43698e-006 -4.06689e-006 3.03875e-007 -1.88358e-007 2.12842e-006 -8.82781e-031 3.18055e-015 1.59028e-014 -3.0573e-006 2.43698e-006 -4.06689e-006 3.03875e-007 -1.88358e-007 2.12842e-006 2.36977 3.78898 -32.7678 -5.19556 30.682 26.3301 -41.6378 -28.4047 26.3923 -0.78822 8.69325 4.05307 -1.19271e-015 -7.95139e-016 3.18055e-015 -3.97569e-016 -7.95139e-016 3.18055e-015 -1.19271e-015 0 -9.54166e-015 -3.97569e-016 -7.95139e-016 1.27222e-014 -7.95139e-016 7.95139e-016 9.54166e-015 2.64834e-031 1.59028e-015 -9.54166e-015 -1.19271e-015 2.38542e-015 -1.27222e-014 -7.95139e-016 7.95139e-016 9.54166e-015 2.64834e-031 1.59028e-015 -9.54166e-015 -1.19271e-015 2.38542e-015 -1.27222e-014 -3.97569e-016 -7.95139e-016 1.27222e-014 -7.95139e-016 7.95139e-016 9.54166e-015 2.64834e-031 1.59028e-015 -9.54166e-015 -1.19271e-015 2.38542e-015 -1.27222e-014 -7.95139e-016 7.95139e-016 9.54166e-015 2.64834e-031 1.59028e-015 -9.54166e-015 -1.19271e-015 2.38542e-015 -1.27222e-014 79.1094 -48.5371 111.446 -6.91681 -1.95459 1.02657 13.2572 11.2235 -13.565 -63.8626 -64.0942 -57.0299 -8.70618 69.4415 4.47176 11.2225 18.7054 -6.75652 
2.40304 -2.53248 -8.28467 -90.0419 -85.2418 -140.041 -9.04927 5.02497 -3.22054 -17.9131 10.4893 -5.63885 -17.9131 10.4893 -5.63886 -15.2989 -37.9963 -25.5585 15.6288 -26.1366 -18.9768 -16.021 13.4241 -24.3774 17.1968 -28.6197 39.433 8.65073 0.124078 -28.7258 -48.1485 -41.7318 -38.3037 -1.11703e-006 -1.33135e-006 -2.76726e-006 7.95139e-015 -6.36111e-015 3.18055e-015 -1.11703e-006 -1.33135e-006 -2.76726e-006 -4.77083e-015 -1.59028e-015 -0 -1.11703e-006 -1.33135e-006 -2.76726e-006 1.59028e-015 -7.95139e-015 6.36111e-015 -1.11703e-006 -1.33135e-006 -2.76726e-006 -1.11703e-006 -1.33135e-006 -2.76726e-006 1.59028e-015 -7.95139e-015 6.36111e-015 -1.11703e-006 -1.33135e-006 -2.76726e-006 -4.77083e-015 -1.59028e-015 -0 -1.11703e-006 -1.33135e-006 -2.76726e-006 1.59028e-015 -7.95139e-015 6.36111e-015 -1.11703e-006 -1.33135e-006 -2.76726e-006 -1.11703e-006 -1.33135e-006 -2.76726e-006 1.59028e-015 -7.95139e-015 6.36111e-015 -1.11703e-006 -1.33135e-006 -2.76726e-006 2.48158 3.83106 -32.6372 -5.19554 30.682 26.3301 -41.5003 -28.2432 26.1826 -1.11747 8.15017 4.02828 -3.97569e-016 0 -3.18055e-015 -7.95139e-016 -7.95139e-016 3.18055e-015 1.01216e-007 3.32541e-008 -6.01545e-009 -3.97569e-016 7.95139e-016 -6.36111e-015 -1.32417e-031 7.95139e-016 9.54166e-015 -1.19271e-015 -7.95139e-016 1.27222e-014 1.01216e-007 3.32541e-008 -6.01545e-009 -1.32417e-031 7.95139e-016 9.54166e-015 -1.19271e-015 -7.95139e-016 1.27222e-014 1.01216e-007 3.32541e-008 -6.01545e-009 -3.97569e-016 7.95139e-016 -6.36111e-015 -1.32417e-031 7.95139e-016 9.54166e-015 -1.19271e-015 -7.95139e-016 1.27222e-014 1.01216e-007 3.32541e-008 -6.01545e-009 -1.32417e-031 7.95139e-016 9.54166e-015 -1.19271e-015 -7.95139e-016 1.27222e-014 1.01216e-007 3.32541e-008 -6.01545e-009 79.1192 -48.4129 111.559 -6.91731 -1.95554 1.01802 13.3249 11.0979 -14.2901 -61.9727 -63.8634 -55.4049 -8.55634 69.3417 4.3414 11.3271 18.6549 -6.91592 
